<svg xmlns="http://www.w3.org/2000/svg" width="30.414" height="34.145" viewBox="0 0 30.414 34.145">
  <g id="Контур_67" data-name="Контур 67" transform="matrix(0.588, -0.809, 0.809, 0.588, -7.82, 17.542)">
    <path d="M 13.961106300354 24.94262886047363 C 5.561546325683594 24.94262886047363 -0.6800038814544678 19.81351852416992 -1.457123875617981 16.13628768920898 C -1.671493887901306 15.12192821502686 -1.557613849639893 13.74933815002441 0.2022960931062698 12.97070789337158 C 0.7461661100387573 12.73007774353027 1.207396149635315 12.60807800292969 1.573156118392944 12.60807800292969 C 2.49833607673645 12.60807800292969 2.885826110839844 13.40933799743652 3.545806169509888 14.94482803344727 C 4.674625873565674 17.57106781005859 6.380506038665771 21.53986740112305 13.99999618530273 21.53986740112305 C 18.85229682922363 21.53986740112305 20.86655616760254 20.16989898681641 22.54373550415039 17.95946884155273 C 23.19359588623047 17.10959815979004 23.65385627746582 16.15459823608398 24.05994606018066 15.31201839447021 C 24.87018585205078 13.63087844848633 25.3840160369873 12.67972850799561 26.52198600769043 12.67972850799561 C 26.88740539550781 12.67972850799561 27.32196617126465 12.77987861633301 27.81358528137207 12.97740840911865 C 29.16192626953125 13.51915836334229 29.73275566101074 14.5427885055542 29.46435546875 15.93761825561523 C 29.09905624389648 17.83597755432129 27.26086616516113 20.08003807067871 24.66710662841797 21.79405784606934 C 21.60531616210938 23.81737899780273 17.81666564941406 24.93554878234863 13.9990758895874 24.94258880615234 L 13.961106300354 24.94262886047363 Z" stroke="none"/>
    <path d="M 13.961106300354 24.44262886047363 L 13.99814605712891 24.44258880615234 C 17.71915626525879 24.43572807312012 21.41023635864258 23.34697914123535 24.39144515991211 21.37691879272461 C 26.87690544128418 19.73445892333984 28.63259696960449 17.61403846740723 28.97336578369141 15.84313774108887 C 29.19702529907227 14.68080806732178 28.75667572021484 13.895188331604 27.62716674804688 13.44135856628418 C 27.19509696960449 13.2677583694458 26.82325553894043 13.17972850799561 26.52198600769043 13.17972850799561 C 25.72218704223633 13.17972850799561 25.31496620178223 13.85965824127197 24.51036643981934 15.52909851074219 C 24.09387588500977 16.39325904846191 23.621826171875 17.37271881103516 22.94205665588379 18.26168823242188 C 21.22134590148926 20.52949905395508 19.04218673706055 22.03986740112305 13.99999618530273 22.03986740112305 C 6.051186084747314 22.03986740112305 4.267045974731445 17.88898849487305 3.086446046829224 15.14226818084717 C 2.409046173095703 13.56628799438477 2.12825608253479 13.10807800292969 1.573156118392944 13.10807800292969 C 1.277506113052368 13.10807800292969 0.8843361139297485 13.2156982421875 0.4045960903167725 13.42794799804688 C -0.7787638902664185 13.95150852203369 -1.227723956108093 14.80358791351318 -0.9679338932037354 16.03289794921875 C -0.5939239263534546 17.80264854431152 1.173686146736145 19.89225769042969 3.645096063613892 21.48624801635742 C 6.600945949554443 23.39269828796387 10.26457595825195 24.44262886047363 13.961106300354 24.44262886047363 M 13.96110820770264 25.44262313842773 C 1.939165234565735 25.44262313842773 -5.974258422851563 15.15663242340088 -3.906250185536919e-06 12.51345825195313 C 0.6329389214515686 12.23342609405518 1.146536350250244 12.10807418823242 1.573154330253601 12.10807418823242 C 5.177509784698486 12.10807418823242 2.609004020690918 21.03986740112305 13.99999618530273 21.03986740112305 C 18.75174522399902 21.03986740112305 20.61044692993164 19.68024826049805 22.14541625976563 17.6572380065918 C 23.92689514160156 15.32744407653809 24.20996284484863 12.17972564697266 26.52198219299316 12.17972564697266 C 26.9410457611084 12.17972564697266 27.42659950256348 12.28307056427002 27.99999618530273 12.51345825195313 C 33.95996475219727 14.90811824798584 26.04296684265137 25.42036819458008 13.99999618530273 25.44258880615234 C 13.98750019073486 25.44261169433594 13.97359466552734 25.44262313842773 13.96110820770264 25.44262313842773 Z" stroke="none" fill="#000"/>
  </g>
  <g id="Контур_65" data-name="Контур 65" transform="matrix(0.629, -0.777, 0.777, 0.629, -1.897, 26.7)">
    <path d="M 6.571338176727295 7.266578197479248 C 4.661988258361816 7.266578197479248 3.521018028259277 6.963798522949219 2.980638027191162 6.313718318939209 C 2.477088212966919 5.707948207855225 2.410458087921143 4.735888481140137 2.32610821723938 3.505208492279053 C 2.315418243408203 3.349168300628662 2.304468154907227 3.189588308334351 2.292368173599243 3.026578426361084 C 2.243028163909912 2.362488508224487 2.308728218078613 1.928068399429321 2.487628221511841 1.735388398170471 C 2.635078191757202 1.576568365097046 2.935628175735474 1.502598404884338 3.433458089828491 1.502598404884338 C 3.959528207778931 1.502598404884338 4.63765811920166 1.584208369255066 5.496208190917969 1.687518358230591 C 6.158518314361572 1.767218351364136 6.90919828414917 1.857548356056213 7.763217926025391 1.930588364601135 C 8.228498458862305 1.970378398895264 8.634178161621094 2.00221848487854 8.992097854614258 2.030308485031128 C 9.952502250671387 2.105673789978027 10.78578090667725 2.171063661575317 10.96920490264893 2.280866622924805 C 10.98849582672119 2.370699167251587 10.96944427490234 2.623050928115845 10.95392799377441 2.828478336334229 C 10.9339485168457 3.093178510665894 10.90907859802246 3.422618389129639 10.90907859802246 3.832768440246582 C 10.90907859802246 4.96746826171875 10.8716983795166 5.81220817565918 10.38799858093262 6.349778175354004 C 9.825187683105469 6.975258350372314 8.612418174743652 7.266578197479248 6.571338176727295 7.266578197479248 Z" stroke="none"/>
    <path d="M 3.43345832824707 2.002598285675049 C 3.01240062713623 2.002598285675049 2.879401206970215 2.063064098358154 2.853317260742188 2.077749252319336 C 2.835376739501953 2.109426498413086 2.740681648254395 2.312325000762939 2.790987968444824 2.989538192749023 C 2.803168296813965 3.153518199920654 2.814178466796875 3.314048290252686 2.82493782043457 3.471018314361572 C 2.903118133544922 4.611638069152832 2.964868545532227 5.512568473815918 3.365138053894043 5.994098663330078 C 3.79722785949707 6.513898372650146 4.845988273620605 6.766578674316406 6.571338176727295 6.766578674316406 C 8.408718109130859 6.766578674316406 9.567768096923828 6.513818264007568 10.01631832122803 6.015328407287598 C 10.38090801239014 5.610148429870605 10.40907859802246 4.855148315429688 10.40907859802246 3.832768440246582 C 10.40907859802246 3.403768539428711 10.43473815917969 3.063918590545654 10.45534801483154 2.790838241577148 C 10.45827770233154 2.752058982849121 10.46137714385986 2.711011409759521 10.46430110931396 2.670133113861084 C 10.12103939056396 2.620436668395996 9.548897743225098 2.575535774230957 8.952987670898438 2.528768539428711 C 8.594247817993164 2.500618457794189 8.187638282775879 2.468708515167236 7.72061824798584 2.428768157958984 C 6.857998371124268 2.354998588562012 6.102757930755615 2.264118194580078 5.43643856048584 2.183928489685059 C 4.594528198242188 2.082618236541748 3.929537773132324 2.002598285675049 3.43345832824707 2.002598285675049 M 3.433462142944336 1.002601146697998 C 4.412364959716797 1.002601146697998 5.84868335723877 1.265023708343506 7.805828094482422 1.432408332824707 C 12.27867794036865 1.814938545227051 11.40907859802246 1.47398853302002 11.40907859802246 3.832768440246582 C 11.40907859802246 6.191548347473145 11.28993797302246 7.766578197479248 6.571338176727295 7.766578197479248 C 1.852727890014648 7.766578197479248 2.008638381958008 5.956578254699707 1.79373836517334 3.063618183135986 C 1.672869682312012 1.43650484085083 2.175186157226563 1.002601146697998 3.433462142944336 1.002601146697998 Z" stroke="none" fill="#000"/>
  </g>
  <g id="Контур_68" data-name="Контур 68" transform="translate(25.24 4.462) rotate(130)">
    <path d="M 1.712450742721558 6.441526889801025 C 1.712317705154419 6.441526889801025 1.712193846702576 6.441526889801025 1.712060928344727 6.441526889801025 C 1.191020846366882 6.441486835479736 0.8759309053421021 6.363437175750732 0.7204608917236328 6.195887088775635 C 0.534130871295929 5.995097160339355 0.465540885925293 5.546886920928955 0.5166208744049072 4.863717079162598 C 0.529120922088623 4.696446895599365 0.5404208898544312 4.532687187194824 0.5514708757400513 4.372567176818848 C 0.6387208700180054 3.107707023620605 0.7076308727264404 2.108637094497681 1.230310916900635 1.483996987342834 C 1.79189658164978 0.8128479719161987 2.97486400604248 0.5002470016479492 4.952996253967285 0.5002470016479492 C 4.953116893768311 0.5002470016479492 4.953160285949707 0.5002470016479492 4.953280925750732 0.5002470016479492 C 7.067461013793945 0.5002869963645935 8.324541091918945 0.8010370135307312 8.909390449523926 1.44672703742981 C 9.413141250610352 2.002887010574341 9.450840950012207 2.833537101745605 9.450860977172852 4.037296772003174 C 9.450870513916016 4.457837104797363 9.476551055908203 4.795706748962402 9.497190475463867 5.067186832427979 C 9.513589859008789 5.282924175262451 9.533782958984375 5.5486159324646 9.511623382568359 5.637288093566895 C 9.331988334655762 5.753794193267822 8.46074390411377 5.821691989898682 7.455650806427002 5.900026798248291 C 7.08595085144043 5.928836822509766 6.66692066192627 5.961496829986572 6.18635082244873 6.002316951751709 C 5.304501056671143 6.077227115631104 4.529261112213135 6.169897079467773 3.845290899276733 6.251667022705078 C 2.957947492599487 6.357730865478516 2.257014036178589 6.441526889801025 1.712450742721558 6.441526889801025 Z" stroke="none"/>
    <path d="M 1.712410926818848 5.941526889801025 C 2.227221012115479 5.941526889801025 2.915120840072632 5.859296798706055 3.786020994186401 5.755187034606934 C 4.473970890045166 5.672956943511963 5.253720760345459 5.579747200012207 6.144031047821045 5.504117012023926 C 6.626330852508545 5.463147163391113 7.046290874481201 5.430417060852051 7.416800975799561 5.40153694152832 C 8.072860717773438 5.350404739379883 8.66368579864502 5.304355144500732 9.009540557861328 5.252342224121094 C 9.00605297088623 5.202749729156494 9.002218246459961 5.152292728424072 8.998630523681641 5.105086803436279 C 8.977351188659668 4.825177192687988 8.950870513916016 4.47681713104248 8.950860977172852 4.037306785583496 C 8.950840950012207 2.983336925506592 8.921280860900879 2.204647064208984 8.538810729980469 1.782397031784058 C 8.068751335144043 1.263437032699585 6.862401008605957 1.000286936759949 4.952980995178223 1.000247001647949 C 3.159140825271606 1.000247001647949 2.066900968551636 1.263517022132874 1.613850951194763 1.805086970329285 C 1.195300936698914 2.305417060852051 1.131280899047852 3.233196973800659 1.050230860710144 4.407816886901855 C 1.039130926132202 4.568606853485107 1.027780890464783 4.733036994934082 1.015230894088745 4.900987148284912 C 0.9566519260406494 5.684581756591797 1.085611343383789 5.854028701782227 1.085134983062744 5.854028701782227 C 1.085134148597717 5.854028701782227 1.085132718086243 5.854028224945068 1.085130929946899 5.854026794433594 C 1.086230874061584 5.854907035827637 1.201060891151428 5.941486835479736 1.712220907211304 5.941526889801025 L 1.712410926818848 5.941526889801025 M 1.712022066116333 6.941524982452393 C 0.412191778421402 6.941430568695068 -0.1068224310874939 6.496211528778076 0.01801089569926262 4.826436996459961 C 0.2399608939886093 1.857627034187317 0.07886089384555817 0.0001669854682404548 4.953290939331055 0.0002469854662194848 C 9.827720642089844 0.0003369854821357876 9.950820922851563 1.616667032241821 9.950860977172852 4.037286758422852 C 9.950910568237305 6.457917213439941 10.84922122955322 6.108047008514404 6.228671073913574 6.500526905059814 C 4.206898212432861 6.672265529632568 2.723251819610596 6.941598415374756 1.712022066116333 6.941524982452393 Z" stroke="none" fill="#000"/>
  </g>
</svg>
